<?xml version="1.0" encoding="utf-8"?>
<!-- Generator: Adobe Illustrator 15.1.0, SVG Export Plug-In . SVG Version: 6.00 Build 0)  -->
<!DOCTYPE svg PUBLIC "-//W3C//DTD SVG 1.1//EN" "http://www.w3.org/Graphics/SVG/1.1/DTD/svg11.dtd" [
	<!ENTITY ns_extend "http://ns.adobe.com/Extensibility/1.0/">
	<!ENTITY ns_ai "http://ns.adobe.com/AdobeIllustrator/10.0/">
	<!ENTITY ns_graphs "http://ns.adobe.com/Graphs/1.0/">
	<!ENTITY ns_vars "http://ns.adobe.com/Variables/1.0/">
	<!ENTITY ns_imrep "http://ns.adobe.com/ImageReplacement/1.0/">
	<!ENTITY ns_sfw "http://ns.adobe.com/SaveForWeb/1.0/">
	<!ENTITY ns_custom "http://ns.adobe.com/GenericCustomNamespace/1.0/">
	<!ENTITY ns_adobe_xpath "http://ns.adobe.com/XPath/1.0/">
]>
<svg version="1.1" id="Layer_1" xmlns:x="&ns_extend;" xmlns:i="&ns_ai;" xmlns:graph="&ns_graphs;"
	 xmlns="http://www.w3.org/2000/svg" xmlns:xlink="http://www.w3.org/1999/xlink" x="0px" y="0px" 
	 viewBox="0 0 412 492" enable-background="new 0 0 612 792" xml:space="preserve">
<switch>

	<g i:extraneous="self">
		
			<polyline fill="none" stroke="#C8CCE7" stroke-width="5" stroke-linecap="round" stroke-linejoin="round" stroke-miterlimit="10" points="
			138.894,374.867 201.214,374.867 219,242.916 248.125,406.046 261.334,350.916 488.479,350.916 		"/>
		<g>
			<path fill="#6679BB" d="M180.389,308.659c2.978-4.817,7.357-7.182,13.138-7.182c12.35,0.438,18.48,8.496,18.48,24.261
				c0,15.415-7.182,23.21-21.546,23.473c-14.452,0.087-21.721-6.832-21.721-20.758v-39.501h5.868c3.854,0,5.781,2.015,5.781,5.868
				V308.659z M180.389,325.212c-0.087,9.372,3.065,14.102,9.722,14.102c6.656,0,9.984-4.73,9.984-14.102
				c-0.263-8.934-3.503-13.313-9.81-13.313S180.739,316.279,180.389,325.212z"/>
			<path fill="#6679BB" d="M221.114,288.952c3.854,0,5.693,1.927,5.605,5.693v3.416h-11.649v-9.109H221.114z M221.114,302.178
				c3.766,0,5.605,1.839,5.605,5.605v40.727h-11.649v-46.333H221.114z"/>
			<path fill="#6679BB" d="M272.876,325.563c0,15.94-7.094,23.999-21.108,23.999s-21.021-8.058-21.021-23.999
				c0-16.116,7.007-24.086,21.021-24.086S272.876,309.447,272.876,325.563z M242.571,325.563c0.088,9.021,3.153,13.576,9.109,13.576
				c5.956,0,8.934-4.729,9.021-13.926c0-9.021-2.978-13.488-8.934-13.488C245.637,311.725,242.571,316.366,242.571,325.563z"/>
			<path fill="#6679BB" d="M287.939,294.645v53.865H276.29v-59.558h6.044C285.399,288.952,287.939,291.58,287.939,294.645z"/>
			<path fill="#6679BB" d="M334.095,325.563c0,15.94-7.095,23.999-21.108,23.999s-21.021-8.058-21.021-23.999
				c0-16.116,7.007-24.086,21.021-24.086S334.095,309.447,334.095,325.563z M303.79,325.563c0.088,9.021,3.153,13.576,9.109,13.576
				c5.955,0,8.934-4.729,9.021-13.926c0-9.021-2.978-13.488-8.934-13.488C306.855,311.725,303.79,316.366,303.79,325.563z"/>
			<path fill="#6679BB" d="M336.809,325.388c0-15.415,7.182-23.123,21.546-23.385c14.451-0.087,21.721,6.744,21.721,20.67v27.415
				c0,11.649-7.357,17.517-22.159,17.78c-10.51,0-17.166-4.905-19.882-14.714h12.875c0.788,3.328,3.504,4.905,8.321,4.905
				c6.131,0,9.283-3.591,9.283-10.773c0,0,0,0.087,0-4.729c-2.978,4.554-7.444,6.832-13.225,6.832
				C342.939,349.386,336.809,341.328,336.809,325.388z M368.514,325.738c0.088-9.372-3.152-14.014-9.81-14.014
				c-6.656,0-9.896,4.642-9.896,14.014c0.263,8.934,3.416,13.4,9.722,13.4C364.836,339.139,368.164,334.672,368.514,325.738z"/>
			<path fill="#9BA4D3" d="M393.212,339.314v9.196h-9.897v-5.781c0-2.277,1.227-3.416,3.767-3.416H393.212z"/>
			<path fill="#9BA4D3" d="M403.195,288.952c3.854,0,5.693,1.927,5.605,5.693v3.416h-11.648v-9.109H403.195z M403.195,302.178
				c3.767,0,5.605,1.839,5.605,5.605v40.727h-11.648v-46.333H403.195z"/>
			<path fill="#9BA4D3" d="M454.958,325.563c0,15.94-7.095,23.999-21.108,23.999s-21.021-8.058-21.021-23.999
				c0-16.116,7.007-24.086,21.021-24.086S454.958,309.447,454.958,325.563z M424.653,325.563c0.088,9.021,3.153,13.576,9.109,13.576
				c5.955,0,8.934-4.729,9.021-13.926c0-9.021-2.978-13.488-8.934-13.488C427.719,311.725,424.653,316.366,424.653,325.563z"/>
		</g>
	</g>
</switch>

</svg>
